<svg class="logo-icon" width="52" height="49" viewBox="0 0 52 49" fill="none" xmlns="http://www.w3.org/2000/svg"> <path fill-rule="evenodd" clip-rule="evenodd" d="M19.3457 16.2576L20.4152 9.58832C21.4143 10.7059 22.3687 11.8806 23.2739 13.1114C25.7586 16.4896 27.7208 20.0854 29.1769 23.8044C29.2909 24.096 29.6761 24.1582 29.8751 23.9151L30.5052 23.147C30.8332 22.7471 30.9465 22.2117 30.7961 21.7191C29.9437 18.9218 28.8288 16.1742 27.464 13.5051C27.4646 13.5013 27.4646 13.4982 27.4646 13.4945C28.4524 12.1238 29.5005 10.8209 30.6028 9.58832L31.6717 16.2576C31.707 16.4777 31.916 16.6276 32.1388 16.5928L38.8898 15.5362C38.1224 16.8204 37.2864 18.0804 36.3812 19.3111C33.8971 22.6887 31.0422 25.6433 27.9122 28.1601C27.6667 28.3579 27.7259 28.7398 28.0218 28.8523L28.9547 29.2062C29.4407 29.3909 29.9915 29.3318 30.419 29.0383C32.8489 27.3728 35.1492 25.4766 37.2978 23.3696C37.3009 23.369 37.3041 23.3684 37.3078 23.3672C38.6443 23.782 39.9493 24.249 41.2203 24.7664C41.5445 24.8983 41.559 25.3492 41.2461 25.5059L35.9474 28.1732C35.7466 28.2746 35.6667 28.5171 35.7693 28.7155L38.8722 34.7324C37.3991 34.4084 35.9279 34.0116 34.4637 33.5421C30.4435 32.2516 26.7168 30.4823 23.3268 28.3194C23.0611 28.1496 22.7111 28.3237 22.6947 28.6359L22.6419 29.6216C22.6148 30.1359 22.8414 30.6347 23.2563 30.9463C25.6107 32.7143 28.147 34.2896 30.8389 35.6565C30.8414 35.6597 30.8426 35.6621 30.8452 35.6659C30.8615 37.3481 30.7891 39.0105 30.6305 40.6479L25.797 35.873C25.6384 35.7156 25.3797 35.7156 25.2204 35.873L20.3869 40.6479C20.244 39.1634 20.1704 37.6591 20.1704 36.1373C20.1704 31.9625 20.7218 27.9139 21.7568 24.0606C21.838 23.7577 21.5629 23.4835 21.2569 23.5643L20.2912 23.8193C19.7882 23.9524 19.3784 24.3199 19.2066 24.8056C18.2314 27.5644 17.4993 30.4338 17.0146 33.386C17.012 33.3891 17.0102 33.391 17.0076 33.3941C15.3935 33.9295 13.7706 34.3748 12.1458 34.7324L15.2488 28.7155C15.3507 28.5171 15.2708 28.2746 15.07 28.1732L8.97998 25.1079C10.3643 24.5146 11.7902 23.981 13.2551 23.5108C17.2752 22.2204 21.3432 21.4872 25.3734 21.2695C25.6894 21.2521 25.8682 20.9094 25.6957 20.647L25.1511 19.818C24.8672 19.3857 24.3869 19.114 23.8663 19.1034C20.9094 19.04 17.9205 19.2384 14.929 19.6955C14.9252 19.6942 14.9227 19.693 14.9189 19.6917C13.9041 18.3403 12.9743 16.9529 12.1282 15.5362L18.8792 16.5928C19.1021 16.6276 19.3104 16.4777 19.3457 16.2576ZM10.9662 20.4542C9.58943 20.7757 8.21455 21.1482 6.84534 21.5879C4.54948 22.3248 2.34175 23.2067 0.2297 24.2191C-0.0756183 24.3659 -0.0762478 24.7975 0.225923 24.9493L10.2806 30.0103L5.15697 39.9439C5.00336 40.2418 5.26084 40.5913 5.59448 40.5322C7.90609 40.1249 10.2164 39.5565 12.5129 38.8189C13.8821 38.3798 15.2161 37.8829 16.5211 37.3431C16.4046 38.7362 16.3392 40.1429 16.3392 41.5652C16.3392 43.9502 16.5054 46.2972 16.8277 48.5946C16.8743 48.926 17.2897 49.0604 17.5296 48.8234L25.5088 40.9408L33.488 48.8234C33.7284 49.0604 34.1433 48.9266 34.1899 48.5946C34.5122 46.2972 34.679 43.9502 34.679 41.5652C34.679 40.1429 34.6129 38.7362 34.4965 37.3437C35.8015 37.8829 37.136 38.3798 38.5046 38.8189C40.8011 39.5565 43.1115 40.1249 45.4231 40.5322C45.7573 40.5913 46.0148 40.2418 45.8606 39.9439L40.7375 30.0103L50.7923 24.9493C51.0944 24.7975 51.0938 24.3659 50.7885 24.2191C48.6764 23.2067 46.4681 22.3248 44.1722 21.5879C42.803 21.1482 41.4281 20.7757 40.052 20.4548C40.9742 19.3957 41.8644 18.2955 42.7111 17.1444C44.13 15.2146 45.3916 13.2196 46.4977 11.1741C46.6576 10.8787 46.4013 10.5286 46.0664 10.5815L34.9208 12.3253L33.1556 1.31453C33.1021 0.983676 32.6866 0.850589 32.4511 1.09189C30.8238 2.76356 29.2928 4.5652 27.8733 6.49496C27.0272 7.64548 26.2434 8.82274 25.5088 10.0162C24.7741 8.82274 23.9904 7.64548 23.1443 6.49496C21.7254 4.5652 20.1944 2.76356 18.5664 1.09189C18.3316 0.850589 17.9155 0.983676 17.8626 1.31453L16.0974 12.3253L4.95174 10.5815C4.61684 10.5286 4.35999 10.8787 4.51989 11.1741C5.62596 13.2196 6.88752 15.2146 8.30709 17.1444C9.15317 18.2955 10.0439 19.3951 10.9662 20.4542Z" fill="#6abf4b"></path> </svg>