<svg xmlns="http://www.w3.org/2000/svg" width="2286" height="2373" viewBox="0 0 2286 2373"> <path d="M1652.06 428.311C1572.2 379.087 1497.75 345.826 1428.5 325.597C1311.66 291.465 1209.64 294.435 1121.5 320.429C1033.72 346.314 959.705 395.032 898.5 452.684C830.508 516.728 778.332 591.797 740.682 658.835C699.696 731.813 645.099 792.588 586 847.261C501.494 925.439 407.783 991.141 331.5 1062.21C263.516 1125.54 209.374 1193.14 187.924 1277.62C158.536 1393.37 180.139 1499.48 245.009 1602.5C296.575 1684.39 375.481 1764.32 477.845 1845.58C540.346 1895.19 628.259 1943.56 730 1981.01C870.47 2032.71 1037.3 2063.6 1200 2048.21C1355.26 2033.52 1506.75 1976.69 1628 1855.6C1711.74 1771.95 1784.14 1669.66 1840.5 1557.8C1896.42 1446.82 1936.56 1326.42 1956.32 1205.5C1982.83 1043.29 1972.69 880.136 1914.82 737.5C1864.99 614.649 1779.76 507.017 1652.06 428.311Z" fill="url(&quot;#linear-1&quot;)" fill-opacity="0.5"> </path> <defs> <linearGradient id="linear-1" x1="262" y1="1073" x2="694" y2="1585" gradientUnits="userSpaceOnUse"> <stop stop-color="#6ABF4B"></stop> <stop offset="1" stop-color="#6ABF4B" stop-opacity="0"></stop> </linearGradient> </defs> </svg>